<?xml version="1.0" standalone="no"?><!DOCTYPE svg PUBLIC "-//W3C//DTD SVG 1.1//EN" "http://www.w3.org/Graphics/SVG/1.1/DTD/svg11.dtd"><svg t="1763902323030" class="icon" viewBox="0 0 1424 1024" version="1.1" xmlns="http://www.w3.org/2000/svg" p-id="5663" xmlns:xlink="http://www.w3.org/1999/xlink" width="278.125" height="200"><path d="M311.652174 934.956522h801.391304v89.043478H311.652174zM1113.043478 1024v-89.043478a222.608696 222.608696 0 0 0 222.608696-222.608696h89.043478a311.652174 311.652174 0 0 1-311.652174 311.652174zM311.652174 1024a311.652174 311.652174 0 0 1-311.652174-311.652174h89.043478a222.608696 222.608696 0 0 0 222.608696 222.608696zM1424.695652 712.347826h-89.043478a222.608696 222.608696 0 0 0-166.956522-214.594783L1135.304348 489.73913v-44.521739a222.608696 222.608696 0 0 0-222.608696-222.608695 228.396522 228.396522 0 0 0-51.645217 6.678261l-28.939131 7.123478-17.363478-24.486957A288.946087 288.946087 0 0 0 289.391304 378.434783V489.73913l-33.391304 8.459131A222.608696 222.608696 0 0 0 89.043478 712.347826H0a311.652174 311.652174 0 0 1 200.347826-290.281739v-44.521739a377.989565 377.989565 0 0 1 667.826087-241.307826 292.062609 292.062609 0 0 1 44.521739-3.561739 311.652174 311.652174 0 0 1 311.652174 288.500869A311.652174 311.652174 0 0 1 1424.695652 712.347826z" fill="#54C3F1" p-id="5664"></path></svg>